<svg width="35" height="27" viewBox="0 0 35 27" fill="none" xmlns="http://www.w3.org/2000/svg">
<g filter="url(#filter0_d_2173_296)">
<path fill-rule="evenodd" clip-rule="evenodd" d="M5 2C5 1.44772 5.44772 1 6 1H29C29.5523 1 30 1.44772 30 2C30 2.55228 29.5523 3 29 3H6C5.44772 3 5 2.55228 5 2ZM5 9.38462C5 8.83233 5.44772 8.38462 6 8.38462H29C29.5523 8.38462 30 8.83233 30 9.38462C30 9.9369 29.5523 10.3846 29 10.3846H6C5.44772 10.3846 5 9.9369 5 9.38462ZM6 15.7692C5.44772 15.7692 5 16.2169 5 16.7692C5 17.3215 5.44772 17.7692 6 17.7692H29C29.5523 17.7692 30 17.3215 30 16.7692C30 16.2169 29.5523 15.7692 29 15.7692H6Z" fill="#D9D9D9"/>
<path d="M6 0C4.89543 0 4 0.895431 4 2H6V0ZM29 0H6V2H29V0ZM31 2C31 0.89543 30.1046 0 29 0V2H31ZM29 4C30.1046 4 31 3.10457 31 2H29V4ZM6 4H29V2H6V4ZM4 2C4 3.10457 4.89543 4 6 4V2H4ZM6 7.38462C4.89543 7.38462 4 8.28005 4 9.38462H6V9.38461V7.38462ZM29 7.38462H6V9.38461H29V7.38462ZM31 9.38462C31 8.28005 30.1046 7.38462 29 7.38462V9.38461V9.38462H31ZM29 11.3846C30.1046 11.3846 31 10.4892 31 9.38462H29V9.38461V11.3846ZM6 11.3846H29V9.38461H6V11.3846ZM4 9.38462C4 10.4892 4.89543 11.3846 6 11.3846V9.38461V9.38462H4ZM6 16.7692V14.7692C4.89543 14.7692 4 15.6647 4 16.7692H6ZM6 16.7692V16.7692H4C4 17.8738 4.89543 18.7692 6 18.7692V16.7692ZM29 16.7692H6V18.7692H29V16.7692ZM29 16.7692V16.7692V18.7692C30.1046 18.7692 31 17.8738 31 16.7692H29ZM29 16.7692H31C31 15.6647 30.1046 14.7692 29 14.7692V16.7692ZM6 16.7692H29V14.7692H6V16.7692Z" fill="black"/>
</g>
<defs>
<filter id="filter0_d_2173_296" x="0" y="0" width="35" height="26.7692" filterUnits="userSpaceOnUse" color-interpolation-filters="sRGB">
<feFlood flood-opacity="0" result="BackgroundImageFix"/>
<feColorMatrix in="SourceAlpha" type="matrix" values="0 0 0 0 0 0 0 0 0 0 0 0 0 0 0 0 0 0 127 0" result="hardAlpha"/>
<feOffset dy="4"/>
<feGaussianBlur stdDeviation="2"/>
<feComposite in2="hardAlpha" operator="out"/>
<feColorMatrix type="matrix" values="0 0 0 0 0 0 0 0 0 0 0 0 0 0 0 0 0 0 0.25 0"/>
<feBlend mode="normal" in2="BackgroundImageFix" result="effect1_dropShadow_2173_296"/>
<feBlend mode="normal" in="SourceGraphic" in2="effect1_dropShadow_2173_296" result="shape"/>
</filter>
</defs>
</svg>
